<?xml version="1.0" encoding="UTF-8" standalone="no"?>
<!DOCTYPE svg PUBLIC "-//W3C//DTD SVG 1.1//EN" "http://www.w3.org/Graphics/SVG/1.1/DTD/svg11.dtd">
<svg width="100%" height="100%" viewBox="0 0 2680 946" version="1.1" xmlns="http://www.w3.org/2000/svg" xmlns:xlink="http://www.w3.org/1999/xlink" xml:space="preserve" xmlns:serif="http://www.serif.com/" style="fill-rule:evenodd;clip-rule:evenodd;stroke-linejoin:round;stroke-miterlimit:2;">
    <g transform="matrix(4.16667,0,0,4.16667,-1247.56,-4088.75)">
        <g opacity="0.6">
            <text x="331.568px" y="1208.1px" style="font-family:'Arial-BoldMT', 'Arial', sans-serif;font-weight:700;font-size:100px;fill:white;">4</text>
            <text x="331.568px" y="1208.1px" style="font-family:'Arial-BoldMT', 'Arial', sans-serif;font-weight:700;font-size:100px;fill:white;">4</text>
        </g>
    </g>
    <g transform="matrix(4.16667,0,0,4.16667,-1247.56,-5111.25)">
        <rect x="299.414" y="1226.7" width="643.172" height="226.801" style="fill:rgb(188,157,171);"/>
    </g>
    <g transform="matrix(4.16667,0,0,4.16667,-1247.56,-5111.25)">
        <rect x="299.414" y="1226.7" width="643.172" height="226.801" style="fill:rgb(188,157,171);"/>
    </g>
    <g transform="matrix(4.16667,0,0,4.16667,-1247.56,-4166.24)">
        <rect x="299.414" y="999.898" width="643.172" height="226.801" style="fill:rgb(201,175,187);"/>
    </g>
    <g transform="matrix(4.16667,0,0,4.16667,-1247.56,-3221.25)">
        <rect x="299.414" y="773.1" width="643.172" height="226.799" style="fill:rgb(213,194,202);"/>
    </g>
    <g transform="matrix(4.16667,0,0,4.16667,-1247.56,-2276.27)">
        <rect x="299.414" y="546.301" width="643.172" height="226.801" style="fill:rgb(226,212,218);"/>
    </g>
    <g transform="matrix(4.16667,0,0,4.16667,-1247.56,-5978.75)">
        <g opacity="0.9">
            <text x="331.568px" y="1661.7px" style="font-family:'Arial-BoldMT', 'Arial', sans-serif;font-weight:700;font-size:100px;fill:white;">2</text>
        </g>
    </g>
</svg>
