<?xml version="1.0" encoding="UTF-8" standalone="no"?>
<!DOCTYPE svg PUBLIC "-//W3C//DTD SVG 1.1//EN" "http://www.w3.org/Graphics/SVG/1.1/DTD/svg11.dtd">
<svg width="100%" height="100%" viewBox="0 0 3515 1017" version="1.1" xmlns="http://www.w3.org/2000/svg" xmlns:xlink="http://www.w3.org/1999/xlink" xml:space="preserve" xmlns:serif="http://www.serif.com/" style="fill-rule:evenodd;clip-rule:evenodd;stroke-linejoin:round;stroke-miterlimit:2;">
    <g transform="matrix(4.16667,0,0,4.16667,1153.62,326.43)">
        <path d="M0,-51.839C-6.081,-51.839 -12.693,-48.639 -16.001,-42.452C-19.201,-48.639 -24.32,-51.839 -31.788,-51.839C-40.855,-51.839 -47.041,-45.653 -48,-42.666L-48.214,-42.666L-48.214,-50.56L-57.174,-50.56L-57.174,0L-47.573,0L-47.573,-26.239C-47.573,-37.653 -41.387,-42.879 -34.453,-42.879C-25.174,-42.879 -23.787,-36.053 -23.787,-26.453L-23.787,0L-14.188,0L-14.188,-27.627C-14.188,-36.587 -10.56,-42.879 -1.281,-42.879C8,-42.879 9.6,-35.84 9.6,-28.161L9.6,0L19.2,0L19.2,-29.44C19.2,-40.747 15.573,-51.839 0,-51.839" style="fill:rgb(214,23,38);fill-rule:nonzero;"/>
    </g>
    <g transform="matrix(-0.277419,-4.15742,-4.15742,0.277419,575.33,130.254)">
        <path d="M-5.919,-6.328C-2.612,-6.549 0.528,-4.544 0.744,-1.315C1.001,2.544 -1.981,5.274 -5.919,5.537C-9.227,5.758 -12.367,3.752 -12.583,0.525C-12.84,-3.336 -9.857,-6.065 -5.919,-6.328" style="fill:rgb(214,23,38);fill-rule:nonzero;"/>
    </g>
    <g transform="matrix(4.15633,0.293297,0.293297,-4.15633,592.766,86.1387)">
        <path d="M0.474,-0.017C4.332,0.256 6.629,3.584 6.352,7.521C6.118,10.828 3.701,13.664 0.474,13.437C-3.384,13.164 -5.681,9.836 -5.404,5.899C-5.17,2.592 -2.754,-0.245 0.474,-0.017" style="fill:rgb(214,23,38);fill-rule:nonzero;"/>
    </g>
    <g transform="matrix(4.16667,0,0,4.16667,814.397,408.125)">
        <path d="M0,-97.95C-19.59,-97.95 -24.304,-78.675 -25.562,-75.636C-27.133,-72.075 -29.018,-69.666 -36.876,-69.666L-37.504,-65.684L-28.495,-65.684C-29.437,-55.419 -31.219,-44.627 -32.79,-34.361C-36.352,-12.467 -38.236,-4.504 -45.465,-4.504C-46.827,-4.504 -48.085,-5.238 -48.085,-6.494C-48.085,-7.543 -46.514,-8.275 -45.465,-8.59C-45.885,-10.057 -46.827,-14.142 -51.751,-14.142C-55.626,-14.142 -58.56,-10.79 -58.56,-6.494C-58.56,-3.352 -55.523,0 -47.666,0C-26.714,0 -23.466,-27.342 -15.4,-65.684L1.024,-65.695L1.05,-19.606L10.65,-19.606L10.65,-70.167C10.65,-70.167 2.395,-70.184 2.391,-70.176C2.391,-70.176 2.382,-70.175 2.38,-70.175L-14.352,-69.666C-13.62,-73.122 -13.409,-76.055 -12.467,-79.407C-9.218,-90.617 -6.286,-93.969 -1.362,-93.969C0.105,-93.969 2.095,-93.445 2.095,-91.77C2.095,-90.512 0.628,-89.989 -0.524,-89.465C-0.104,-86.95 0.419,-81.922 6.285,-81.922C9.952,-81.922 13.095,-84.96 13.095,-88.627C13.095,-94.388 6.601,-97.95 0,-97.95" style="fill:rgb(214,23,38);fill-rule:nonzero;"/>
    </g>
    <g transform="matrix(4.16667,0,0,4.16667,119.058,631.612)">
        <path d="M0,-54.544C9.89,-51.502 17.821,-44.331 17.821,-27.164C17.821,-9.344 6.954,-1.305 -0.652,0.434C-4.779,1.412 -7.496,1.521 -12.602,1.521L-28.574,1.521L-28.574,-56.065L-15.753,-56.065C-9.994,-56.065 -4.563,-55.957 0,-54.544M1.197,-41.288C-1.411,-45.309 -4.889,-46.938 -10.32,-46.938L-16.515,-46.938L-16.515,-7.933L-8.909,-7.933C-7.28,-7.933 -5.431,-8.041 -2.281,-9.562C0.654,-11.083 4.565,-15.212 4.565,-26.187C4.565,-32.923 3.478,-37.703 1.197,-41.288" style="fill:rgb(118,75,107);fill-rule:nonzero;"/>
    </g>
    <g transform="matrix(4.16667,0,0,4.16667,-830.46,-482.84)">
        <rect x="258.935" y="211.403" width="12.388" height="57.586" style="fill:rgb(118,75,107);"/>
    </g>
    <g transform="matrix(4.16667,0,0,4.16667,367.001,398.005)">
        <path d="M0,57.586L0,0L36.292,0L34.553,9.453L11.952,9.453L11.952,22.709L30.858,22.709L30.858,32.27L12.062,32.27L12.062,47.59L37.053,47.59L37.053,57.586L0,57.586Z" style="fill:rgb(118,75,107);fill-rule:nonzero;"/>
    </g>
    <g transform="matrix(4.16667,0,0,4.16667,829.668,397.097)">
        <path d="M0,57.804L-4.999,44.005L-24.663,44.005L-29.552,57.804L-42.049,57.804L-20.643,0L-7.606,0L12.93,57.804L0,57.804ZM-14.56,11.192C-15.211,14.452 -20.643,31.292 -21.621,34.769L-7.713,34.769C-8.8,31.075 -14.015,14.452 -14.56,11.192" style="fill:rgb(118,75,107);fill-rule:nonzero;"/>
    </g>
    <g transform="matrix(4.16667,0,0,4.16667,1093.14,421.544)">
        <path d="M0,47.374C-3.476,50.633 -9.125,53.023 -17.493,53.023C-28.032,53.023 -34.659,49.546 -37.918,44.549C-39.983,41.398 -40.526,38.355 -40.526,32.379L-40.526,-5.649L-28.357,-5.649L-28.357,30.532C-28.357,34.444 -28.141,36.943 -27.38,38.463C-25.859,41.506 -22.381,43.244 -17.709,43.244C-13.907,43.244 -10.865,42.158 -9.342,40.202C-7.822,38.355 -7.17,36.617 -7.17,30.858L-7.17,-5.649L4.999,-5.649L4.999,31.945C4.999,40.854 3.695,43.897 0,47.374" style="fill:rgb(118,75,107);fill-rule:nonzero;"/>
    </g>
    <g transform="matrix(4.16667,0,0,4.16667,1329.05,599.012)">
        <path d="M0,-38.898L-21.078,-38.898L-21.078,-25.425L-4.021,-25.425L-4.021,-15.863L-21.078,-15.863L-21.078,9.344L-33.03,9.344L-33.03,-48.242L1.521,-48.242L0,-38.898Z" style="fill:rgb(118,75,107);fill-rule:nonzero;"/>
    </g>
    <g transform="matrix(4.16667,0,0,4.16667,1559.94,597.658)">
        <path d="M0,-38.247L-15.646,-38.247L-15.646,9.669L-27.708,9.669L-27.708,-38.247L-43.571,-38.247L-43.571,-47.916L2.063,-47.916L0,-38.247Z" style="fill:rgb(118,75,107);fill-rule:nonzero;"/>
    </g>
    <g transform="matrix(4.16667,0,0,4.16667,1749.61,398.005)">
        <path d="M0,57.586L-5.65,48.351C-11.41,38.898 -13.365,36.725 -15.321,34.985C-16.299,34.117 -17.928,33.573 -19.449,33.573L-19.449,57.586L-31.293,57.586L-31.293,0L-11.843,0C-4.237,0 1.087,0.978 4.672,4.021C8.583,7.28 10.648,11.734 10.648,16.841C10.648,25.75 4.562,32.162 -3.585,32.922C-2.826,33.465 -1.846,34.443 -0.978,35.638C0.868,38.028 3.911,42.049 6.518,45.96L14.45,57.586L0,57.586ZM-19.449,9.127L-19.449,24.99L-14.234,24.99C-9.235,24.99 -6.302,24.447 -4.347,22.925C-2.717,21.622 -1.846,19.666 -1.846,16.949C-1.846,13.472 -3.478,10.974 -6.737,9.996C-8.583,9.453 -10.758,9.127 -13.691,9.127L-19.449,9.127Z" style="fill:rgb(118,75,107);fill-rule:nonzero;"/>
    </g>
    <g transform="matrix(4.16667,0,0,4.16667,-830.46,-482.84)">
        <rect x="647.008" y="211.403" width="12.387" height="57.586" style="fill:rgb(118,75,107);"/>
    </g>
    <g transform="matrix(4.16667,0,0,4.16667,2153.88,597.658)">
        <path d="M0,-38.247L-15.647,-38.247L-15.647,9.669L-27.708,9.669L-27.708,-38.247L-43.571,-38.247L-43.571,-47.916L2.063,-47.916L0,-38.247Z" style="fill:rgb(118,75,107);fill-rule:nonzero;"/>
    </g>
    <g transform="matrix(4.16667,0,0,4.16667,2383.22,597.658)">
        <path d="M0,-38.247L-15.646,-38.247L-15.646,9.669L-27.708,9.669L-27.708,-38.247L-43.571,-38.247L-43.571,-47.916L2.063,-47.916L0,-38.247Z" style="fill:rgb(118,75,107);fill-rule:nonzero;"/>
    </g>
    <g transform="matrix(4.16667,0,0,4.16667,2574.8,405.25)">
        <path d="M0,53.674C-4.239,55.847 -9.561,57.151 -15.756,57.151C-23.036,57.151 -30.315,55.413 -37.05,52.044L-32.706,42.809C-26.73,45.742 -21.513,47.372 -15.104,47.372C-11.735,47.372 -9.345,46.829 -7.28,45.851C-4.782,44.657 -3.369,42.7 -3.369,40.093C-3.369,36.398 -6.085,34.008 -12.497,32.379L-20.209,30.423C-25.969,29.01 -29.989,26.293 -32.271,22.708C-33.9,20.101 -34.662,17.384 -34.662,14.233C-34.662,3.911 -25.426,-3.477 -12.171,-3.477C-4.565,-3.477 3.911,-1.195 9.126,2.39L3.476,10.756C-1.739,7.823 -6.954,6.301 -11.845,6.301C-17.602,6.301 -21.513,8.801 -21.513,12.821C-21.513,16.08 -19.558,17.927 -13.691,19.339L-5.976,21.187C-1.196,22.382 3.15,24.447 5.867,27.163C8.583,29.879 10.104,33.574 10.104,37.811C10.104,44.547 6.409,50.415 0,53.674" style="fill:rgb(118,75,107);fill-rule:nonzero;"/>
    </g>
    <g transform="matrix(4.16667,0,0,4.16667,2944.66,397.097)">
        <path d="M0,57.804L-4.998,44.005L-24.663,44.005L-29.552,57.804L-42.048,57.804L-20.643,0L-7.605,0L12.93,57.804L0,57.804ZM-14.559,11.192C-15.211,14.452 -20.643,31.292 -21.62,34.769L-7.712,34.769C-8.8,31.075 -14.015,14.452 -14.559,11.192" style="fill:rgb(118,75,107);fill-rule:nonzero;"/>
    </g>
    <g transform="matrix(4.16667,0,0,4.16667,3182.1,499.87)">
        <path d="M0,8.692C-4.782,11.408 -8.477,12.059 -14.778,12.059L-22.601,12.059L-22.601,33.139L-34.662,33.139L-34.662,-24.447L-18.038,-24.447C-7.063,-24.447 -3.911,-23.47 -0.436,-21.732C5.324,-18.797 8.693,-13.256 8.693,-6.737C8.693,0.543 4.779,6.083 0,8.692M-22.601,-15.212L-22.601,2.607L-14.669,2.607C-10.322,2.607 -7.932,1.738 -6.302,-0.109C-4.999,-1.63 -4.456,-3.804 -4.456,-6.411C-4.456,-9.128 -5.324,-11.192 -6.847,-12.713C-8.693,-14.452 -11.41,-15.212 -15.537,-15.212L-22.601,-15.212Z" style="fill:rgb(118,75,107);fill-rule:nonzero;"/>
    </g>
    <g transform="matrix(4.16667,0,0,4.16667,3409.14,499.87)">
        <path d="M0,8.692C-4.782,11.408 -8.476,12.059 -14.778,12.059L-22.6,12.059L-22.6,33.139L-34.662,33.139L-34.662,-24.447L-18.037,-24.447C-7.063,-24.447 -3.911,-23.47 -0.435,-21.732C5.324,-18.797 8.693,-13.256 8.693,-6.737C8.693,0.543 4.78,6.083 0,8.692M-22.6,-15.212L-22.6,2.607L-14.669,2.607C-10.322,2.607 -7.932,1.738 -6.302,-0.109C-4.998,-1.63 -4.456,-3.804 -4.456,-6.411C-4.456,-9.128 -5.324,-11.192 -6.847,-12.713C-8.693,-14.452 -11.41,-15.212 -15.537,-15.212L-22.6,-15.212Z" style="fill:rgb(118,75,107);fill-rule:nonzero;"/>
    </g>
    <g transform="matrix(4.16667,0,0,4.16667,1.35792,1011.26)">
        <path d="M0,-56.716L33.898,-56.716L32.704,-49.546L8.693,-49.546L8.693,-33.465L28.467,-33.465L28.467,-26.294L8.693,-26.294L8.693,0L0,0L0,-56.716Z" style="fill:rgb(118,75,107);fill-rule:nonzero;"/>
    </g>
    <g transform="matrix(4.16667,0,0,4.16667,203.438,1015.34)">
        <path d="M0,-57.694L8.693,-57.694L8.693,-23.686C8.693,-19.232 8.912,-15.755 9.454,-14.233C10.867,-9.996 15.54,-7.497 21.732,-7.497C26.837,-7.497 30.425,-8.801 32.271,-11.408C34.117,-14.016 34.553,-16.081 34.553,-21.405L34.553,-57.694L43.246,-57.694L43.246,-21.621C43.246,-12.278 42.268,-9.018 38.138,-5.215C34.117,-1.521 29.012,0 21.514,0C9.997,0 4.456,-4.563 1.958,-9.671C0.436,-12.82 0,-14.885 0,-21.621L0,-57.694Z" style="fill:rgb(118,75,107);fill-rule:nonzero;"/>
    </g>
    <g transform="matrix(4.16667,0,0,4.16667,467.24,1011.26)">
        <path d="M0,-56.716L15.211,-56.716C24.556,-56.716 28.249,-55.848 31.51,-53.783C35.638,-51.175 38.464,-46.395 38.464,-40.962C38.464,-30.966 32.162,-25.098 21.297,-24.99C22.382,-24.446 23.578,-23.469 24.337,-22.491C26.076,-20.317 29.662,-15.972 32.813,-11.842C36.182,-7.388 41.83,0 41.83,0L31.075,0C29.771,-2.499 27.815,-5.65 25.967,-8.475C21.73,-14.885 18.254,-19.122 15.102,-21.947C12.93,-23.904 11.3,-24.556 8.693,-24.772L8.693,0L0,0L0,-56.716ZM8.693,-49.546L8.693,-30.858L14.56,-30.858C20.752,-30.858 23.904,-31.509 26.293,-33.357C28.249,-34.877 29.445,-37.376 29.445,-40.636C29.445,-44.439 27.054,-47.481 23.469,-48.568C21.404,-49.22 18.906,-49.546 15.538,-49.546L8.693,-49.546Z" style="fill:rgb(118,75,107);fill-rule:nonzero;"/>
    </g>
    <g transform="matrix(4.16667,0,0,4.16667,842.072,1011.26)">
        <path d="M0,-56.716L11.842,-56.716L22.381,-23.904C23.685,-19.666 25.534,-11.842 25.534,-11.842C25.534,-11.842 27.272,-19.232 28.684,-23.578L39.115,-56.716L51.61,-56.716L57.043,0L48.46,0L45.091,-36.398C44.656,-41.505 44.546,-48.35 44.546,-48.35C44.546,-48.35 43.026,-41.723 41.396,-36.724L29.119,0L21.513,0L9.561,-36.834C8.041,-41.614 6.519,-48.459 6.519,-48.459C6.519,-48.459 6.192,-41.723 5.759,-36.834L2.498,0L-5.76,0L0,-56.716Z" style="fill:rgb(118,75,107);fill-rule:nonzero;"/>
    </g>
    <g transform="matrix(4.16667,0,0,4.16667,1151.95,1015.34)">
        <path d="M0,-57.694L8.693,-57.694L8.693,-23.686C8.693,-19.232 8.912,-15.755 9.454,-14.233C10.867,-9.996 15.54,-7.497 21.732,-7.497C26.837,-7.497 30.425,-8.801 32.271,-11.408C34.117,-14.016 34.552,-16.081 34.552,-21.405L34.552,-57.694L43.245,-57.694L43.245,-21.621C43.245,-12.278 42.268,-9.018 38.138,-5.215C34.117,-1.521 29.012,0 21.513,0C9.997,0 4.456,-4.563 1.958,-9.671C0.436,-12.82 0,-14.885 0,-21.621L0,-57.694Z" style="fill:rgb(118,75,107);fill-rule:nonzero;"/>
    </g>
    <g transform="matrix(4.16667,0,0,4.16667,1571.62,993.155)">
        <path d="M0,-48.241L-3.911,-41.939C-8.909,-44.982 -14.124,-46.611 -19.448,-46.611C-26.728,-46.611 -31.51,-43.46 -31.51,-38.462C-31.51,-34.659 -28.684,-32.378 -21.513,-30.422L-13.798,-28.357C-9.454,-27.163 -4.998,-25.208 -2.391,-22.599C0.109,-20.1 1.63,-16.189 1.63,-12.386C1.63,-6.518 -1.846,-0.868 -7.605,2.282C-11.517,4.455 -16.408,5.542 -22.056,5.542C-29.445,5.542 -36.834,3.695 -43.026,0.326L-39.441,-6.518C-33.465,-3.259 -27.815,-1.738 -21.513,-1.738C-17.493,-1.738 -14.885,-2.39 -12.387,-3.911C-9.561,-5.65 -7.932,-8.04 -7.932,-10.973C-7.932,-15.429 -11.083,-18.254 -18.906,-20.318L-27.272,-22.491C-35.53,-24.664 -40.854,-30.314 -40.854,-37.158C-40.854,-46.937 -32.162,-53.783 -19.884,-53.783C-12.604,-53.783 -4.889,-51.718 0,-48.241" style="fill:rgb(118,75,107);fill-rule:nonzero;"/>
    </g>
    <g transform="matrix(4.16667,0,0,4.16667,-830.46,267.418)">
        <rect x="594.565" y="121.807" width="8.693" height="56.716" style="fill:rgb(118,75,107);"/>
    </g>
    <g transform="matrix(4.16667,0,0,4.16667,1765.86,1011.26)">
        <path d="M0,-56.716L8.802,-56.716L8.802,-30.422L32.162,-56.716L43.245,-56.716L18.473,-30.314L43.571,0L32.271,0L8.802,-29.88L8.802,0L0,0L0,-56.716Z" style="fill:rgb(118,75,107);fill-rule:nonzero;"/>
    </g>
    <g transform="matrix(4.16667,0,0,4.16667,2010.18,1011.26)">
        <path d="M0,-56.716L35.313,-56.716L34.117,-49.436L8.693,-49.436L8.693,-33.247L29.99,-33.247L29.99,-25.968L8.802,-25.968L8.802,-7.605L36.292,-7.605L36.292,0L0,0L0,-56.716Z" style="fill:rgb(118,75,107);fill-rule:nonzero;"/>
    </g>
    <g transform="matrix(4.16667,0,0,4.16667,2229.48,1011.26)">
        <path d="M0,-56.716L15.211,-56.716C24.556,-56.716 28.249,-55.848 31.51,-53.783C35.637,-51.175 38.463,-46.395 38.463,-40.962C38.463,-30.966 32.162,-25.098 21.297,-24.99C22.382,-24.446 23.578,-23.469 24.337,-22.491C26.076,-20.317 29.662,-15.972 32.813,-11.842C36.182,-7.388 41.83,0 41.83,0L31.075,0C29.771,-2.499 27.815,-5.65 25.967,-8.475C21.73,-14.885 18.254,-19.122 15.102,-21.947C12.93,-23.904 11.3,-24.556 8.693,-24.772L8.693,0L0,0L0,-56.716ZM8.693,-49.546L8.693,-30.858L14.56,-30.858C20.752,-30.858 23.904,-31.509 26.293,-33.357C28.249,-34.877 29.445,-37.376 29.445,-40.636C29.445,-44.439 27.054,-47.481 23.469,-48.568C21.404,-49.22 18.906,-49.546 15.537,-49.546L8.693,-49.546Z" style="fill:rgb(118,75,107);fill-rule:nonzero;"/>
    </g>
    <g transform="matrix(4.16667,0,0,4.16667,2588.65,1011.26)">
        <path d="M0,-56.716L9.997,-56.716L28.467,-25.859C32.162,-19.666 35.421,-13.038 35.747,-12.604C35.747,-12.604 34.876,-20.643 34.769,-28.141L34.443,-56.716L42.917,-56.716L42.917,0L33.898,0L15.646,-30.096C12.059,-35.964 7.715,-44.873 7.715,-44.873C7.932,-42.592 8.257,-37.376 8.367,-29.119L8.909,0L0,0L0,-56.716Z" style="fill:rgb(118,75,107);fill-rule:nonzero;"/>
    </g>
    <g transform="matrix(4.16667,0,0,4.16667,2852.49,1011.26)">
        <path d="M0,-56.716L9.997,-56.716L28.467,-25.859C32.162,-19.666 35.421,-13.038 35.747,-12.604C35.747,-12.604 34.876,-20.643 34.769,-28.141L34.443,-56.716L42.917,-56.716L42.917,0L33.898,0L15.646,-30.096C12.059,-35.964 7.715,-44.873 7.715,-44.873C7.932,-42.592 8.257,-37.376 8.367,-29.119L8.909,0L0,0L0,-56.716Z" style="fill:rgb(118,75,107);fill-rule:nonzero;"/>
    </g>
    <g transform="matrix(4.16667,0,0,4.16667,3115.96,1011.26)">
        <path d="M0,-56.716L35.313,-56.716L34.117,-49.436L8.693,-49.436L8.693,-33.247L29.989,-33.247L29.989,-25.968L8.802,-25.968L8.802,-7.605L36.291,-7.605L36.291,0L0,0L0,-56.716Z" style="fill:rgb(118,75,107);fill-rule:nonzero;"/>
    </g>
    <g transform="matrix(4.16667,0,0,4.16667,3335.26,1011.26)">
        <path d="M0,-56.716L9.997,-56.716L28.467,-25.859C32.162,-19.666 35.421,-13.038 35.747,-12.604C35.747,-12.604 34.876,-20.643 34.769,-28.141L34.443,-56.716L42.917,-56.716L42.917,0L33.898,0L15.646,-30.096C12.059,-35.964 7.715,-44.873 7.715,-44.873C7.932,-42.592 8.257,-37.376 8.367,-29.119L8.909,0L0,0L0,-56.716Z" style="fill:rgb(118,75,107);fill-rule:nonzero;"/>
    </g>
    <g transform="matrix(4.16667,0,0,4.16667,295.456,921.282)">
        <path d="M0,-39.399C3.146,-39.399 5.766,-36.779 5.766,-33.547C5.766,-30.226 3.146,-27.606 -0.085,-27.606C-3.318,-27.606 -5.939,-30.139 -5.939,-33.372C-5.939,-36.691 -3.318,-39.399 0,-39.399M0,-11.794C3.146,-11.794 5.766,-9.172 5.766,-5.94C5.766,-2.621 3.146,0 -0.173,0C-3.406,0 -5.939,-2.621 -5.939,-5.853C-5.939,-9.172 -3.318,-11.794 0,-11.794" style="fill:rgb(118,75,107);fill-rule:nonzero;"/>
    </g>
    <g transform="matrix(4.16667,0,0,4.16667,-830.46,222.593)">
        <rect x="791.491" y="121.806" width="8.693" height="67.476" style="fill:rgb(118,75,107);"/>
    </g>
</svg>
